<?xml version="1.0" encoding="UTF-8"?>
<svg id="Camada_2" data-name="Camada 2" xmlns="http://www.w3.org/2000/svg" viewBox="0 0 1974.14 496.71">
  <defs>
    <style>
      .cls-1 {
        fill: none;
      }

      .cls-2 {
        fill: #fff;
      }

      .cls-3 {
        fill: #cbb062;
      }
    </style>
  </defs>
  <g id="Camada_1-2" data-name="Camada 1">
    <g>
      <path class="cls-3" d="m0,4.24v16.19h9.03c24.8,0,40.94,2.17,48.41,6.5,7.46,4.34,12.28,12.17,14.45,23.48,2.17,11.32,3.25,36.49,3.25,75.51v240.25c0,40.95-1.08,67.02-3.25,78.22-2.17,11.2-7.29,19.45-15.35,24.75-8.07,5.3-22.58,7.95-43.54,7.95H0v16.62h211.85v-16.62h-8.3c-21.92,0-32.31-2.89-40.25-8.67-7.95-5.78-12.83-14.63-14.63-26.55-1.29-8.5-2.11-23.91-2.48-45.96v-177.99c10.65,12.74,23.49,23.79,38.61,33.09,23.12,14.21,51.18,21.32,84.18,21.32,46.72,0,85.56-13.73,116.51-41.19,30.95-27.46,46.42-61.78,46.42-102.96,0-38.78-11.8-68.76-35.41-89.96-23.61-21.19-49.13-32.39-76.59-33.6v206.29c-14.21.97-24.81,1.44-31.79,1.44-52.02,0-91.11-8.13-117.24-24.39-10.27-6.39-18.45-14.06-24.68-22.93V59.32c9.82-15.69,24.6-28.16,44.37-37.38V4.26c-.17.05-190.58-.02-190.58-.02m398.5,81.1c11.68,12.41,17.52,27.64,17.52,45.7,0,43.84-27.22,69.97-81.65,78.4V67.82c5.54-.72,10.48-1.08,14.81-1.08,21.19,0,37.63,6.2,49.32,18.61"/>
      <g>
        <path class="cls-1" d="m626.18,350.01c0-29.52-25-53.02-54.83-53.02h-53.62v107.85h53.92c29.52,0,54.53-24.4,54.53-54.83Z"/>
        <path class="cls-1" d="m813.85,347.3c0-28.62-24.4-50.61-53.62-50.61h-63.26v103.03h63.56c28.92,0,53.32-22.59,53.32-52.42Z"/>
        <path class="cls-1" d="m815.05,68.99c0-28.62-24.4-50.61-53.62-50.61h-63.26v103.03h63.56c28.92,0,53.32-22.59,53.32-52.42Z"/>
        <path class="cls-1" d="m1197.02,296.99h-53.62v107.85h53.92c29.52,0,54.53-24.4,54.53-54.83s-25-53.02-54.83-53.02Z"/>
        <path class="cls-1" d="m971.69,483.46c52.72,0,95.49-42.18,95.49-94.89s-42.78-95.49-95.49-95.49-95.19,42.78-95.19,95.49,42.48,94.89,95.19,94.89Z"/>
        <path class="cls-1" d="m1563.92,68.99c0-28.62-24.4-50.61-53.62-50.61h-63.26v103.03h63.56c28.92,0,53.32-22.59,53.32-52.42Z"/>
        <path class="cls-1" d="m1566.03,296.69h-63.26v103.03h63.56c28.92,0,53.32-22.59,53.32-52.42s-24.4-50.61-53.62-50.61Z"/>
        <polygon class="cls-1" points="1694.95 24.1 1642.53 145.5 1747.07 145.5 1695.55 24.1 1694.95 24.1"/>
        <path class="cls-2" d="m507.49,215.39h120.8c2.11,0,3.92-1.81,3.92-3.92v-4.82c0-2.11-1.81-3.92-3.92-3.92h-110.26v-89.17h95.5c2.11,0,3.92-1.81,3.92-3.92v-5.12c0-2.11-1.81-3.91-3.92-3.91h-95.5V17.47h110.26c2.11,0,3.92-1.81,3.92-3.92v-5.12c0-2.11-1.81-3.91-3.92-3.91h-120.8c-2.11,0-3.92,1.81-3.92,3.91v203.04c0,2.11,1.81,3.92,3.92,3.92Z"/>
        <path class="cls-2" d="m687.63,215.39h5.42c3.01,0,4.82-1.81,4.82-3.92v-77.42h55.43c3.92,0,7.23,0,11.15-.3l43.68,78.93c.9,1.81,2.11,2.71,4.22,2.71h9.34c3.01,0,3.61-3.01,2.11-5.42l-43.98-78.02c28.62-8.14,49.71-32.54,49.71-62.96,0-36.75-30.43-64.47-67.18-64.47h-74.71c-2.41,0-3.92,1.81-3.92,3.91v203.04c0,2.11,1.81,3.92,3.92,3.92Zm10.54-197.02h63.26c29.22,0,53.62,21.99,53.62,50.61s-24.4,52.42-53.32,52.42h-63.56V18.38Z"/>
        <path class="cls-2" d="m883.43,215.39h6.33c2.11,0,4.22-1.51,4.22-3.92V8.43c0-2.11-1.81-3.91-3.92-3.91h-6.63c-2.11,0-3.92,1.81-3.92,3.91v203.04c0,2.11,1.81,3.92,3.92,3.92Z"/>
        <path class="cls-2" d="m1051.82,218.41c26.81,0,53.02-9.34,73.5-29.22,1.51-1.51,1.51-3.92,0-5.12l-5.12-5.12c-1.21-.9-3.01-.9-4.82.6-18.08,15.06-37.66,25.3-63.56,25.3-52.72,0-93.99-42.78-93.99-94.59s41.27-95.19,93.99-95.19c24.7,0,46.39,9.34,63.56,24.7,1.81,1.81,3.31,2.11,5.12.3l4.82-5.12c1.51-1.51,1.2-3.92-.3-5.42-19.58-17.77-42.48-28.02-73.2-28.02-60.25,0-109.05,48.5-109.05,108.75s48.8,108.15,109.05,108.15Z"/>
        <path class="cls-2" d="m1178.03,215.39h120.8c2.11,0,3.92-1.81,3.92-3.92v-4.82c0-2.11-1.81-3.92-3.92-3.92h-110.26v-89.17h95.5c2.11,0,3.92-1.81,3.92-3.92v-5.12c0-2.11-1.81-3.91-3.92-3.91h-95.5V17.47h110.26c2.11,0,3.92-1.81,3.92-3.92v-5.12c0-2.11-1.81-3.91-3.92-3.91h-120.8c-2.11,0-3.92,1.81-3.92,3.91v203.04c0,2.11,1.81,3.92,3.92,3.92Z"/>
        <path class="cls-2" d="m1358.17,215.39h6.33c2.11,0,4.22-1.51,4.22-3.92V8.43c0-2.11-1.81-3.91-3.92-3.91h-6.63c-2.11,0-3.92,1.81-3.92,3.91v203.04c0,2.11,1.81,3.92,3.92,3.92Z"/>
        <path class="cls-2" d="m1513.31,133.75l43.68,78.93c.9,1.81,2.11,2.71,4.22,2.71h9.34c3.01,0,3.61-3.01,2.11-5.42l-43.98-78.02c28.62-8.14,49.71-32.54,49.71-62.96,0-36.75-30.43-64.47-67.18-64.47h-74.71c-2.41,0-3.92,1.81-3.92,3.91v203.04c0,2.11,1.81,3.92,3.92,3.92h5.42c3.01,0,4.82-1.81,4.82-3.92v-77.42h55.43c3.92,0,7.23,0,11.15-.3Zm-66.28-115.38h63.26c29.22,0,53.62,21.99,53.62,50.61s-24.4,52.42-53.32,52.42h-63.56V18.38Z"/>
        <path class="cls-2" d="m1699.47,2.11c-.9-1.81-2.41-2.11-3.92-2.11h-.9c-1.51,0-3.01.9-3.62,2.11l-92.78,209.67c-.9,2.41,0,3.62,2.11,3.62h8.43c2.11,0,3.62-1.51,4.22-2.71l24.1-55.43h115.08l24.4,55.43c.6,1.21,2.11,2.71,4.22,2.71h7.83c3.31,0,3.31-1.81,2.71-3.62L1699.47,2.11Zm-56.94,143.39l52.42-121.4h.6l51.51,121.4h-104.53Z"/>
        <path class="cls-2" d="m507.49,493.7h5.42c3.01,0,4.82-1.81,4.82-3.92v-71.09h54.83c37.05,0,67.78-30.73,67.78-68.38s-30.73-67.48-68.08-67.48h-64.77c-2.11,0-3.92,1.81-3.92,3.91v203.04c0,2.11,1.81,3.92,3.92,3.92Zm10.24-196.71h53.62c29.82,0,54.83,23.5,54.83,53.02s-25,54.83-54.53,54.83h-53.92v-107.85Z"/>
        <path class="cls-2" d="m686.42,493.7h5.42c3.01,0,4.82-1.81,4.82-3.92v-77.42h55.43c3.92,0,7.23,0,11.15-.3l43.68,78.93c.9,1.81,2.11,2.71,4.22,2.71h9.34c3.01,0,3.61-3.01,2.11-5.42l-43.98-78.02c28.62-8.14,49.71-32.54,49.71-62.96,0-36.75-30.43-64.47-67.18-64.47h-74.71c-2.41,0-3.92,1.81-3.92,3.91v203.04c0,2.11,1.81,3.92,3.92,3.92Zm10.54-197.02h63.26c29.22,0,53.62,21.99,53.62,50.61s-24.4,52.42-53.32,52.42h-63.56v-103.03Z"/>
        <path class="cls-2" d="m971.69,496.71c60.55,0,108.75-47.6,108.75-108.15s-48.2-108.75-108.75-108.75-108.45,48.5-108.45,108.75,48.2,108.15,108.45,108.15Zm0-203.64c52.72,0,95.49,42.78,95.49,95.49s-42.78,94.89-95.49,94.89-95.19-42.18-95.19-94.89,42.48-95.49,95.19-95.49Z"/>
        <path class="cls-2" d="m1266,350.31c0-37.05-30.73-67.48-68.08-67.48h-64.77c-2.11,0-3.92,1.81-3.92,3.91v203.04c0,2.11,1.81,3.92,3.92,3.92h5.42c3.01,0,4.82-1.81,4.82-3.92v-71.09h54.83c37.05,0,67.78-30.73,67.78-68.38Zm-68.68,54.52h-53.92v-107.85h53.62c29.82,0,54.83,23.5,54.83,53.02s-25,54.83-54.53,54.83Z"/>
        <path class="cls-2" d="m1432.89,282.83h-120.8c-2.11,0-3.92,1.81-3.92,3.91v203.04c0,2.11,1.81,3.92,3.92,3.92h120.8c2.11,0,3.92-1.81,3.92-3.92v-4.82c0-2.11-1.81-3.92-3.92-3.92h-110.26v-89.17h95.5c2.11,0,3.92-1.81,3.92-3.92v-5.12c0-2.11-1.81-3.91-3.92-3.91h-95.5v-83.14h110.26c2.11,0,3.92-1.81,3.92-3.92v-5.12c0-2.11-1.81-3.91-3.92-3.91Z"/>
        <path class="cls-2" d="m1634.11,347.3c0-36.75-30.43-64.47-67.18-64.47h-74.71c-2.41,0-3.92,1.81-3.92,3.91v203.04c0,2.11,1.81,3.92,3.92,3.92h5.42c3.01,0,4.82-1.81,4.82-3.92v-77.42h55.43c3.92,0,7.23,0,11.15-.3l43.68,78.93c.9,1.81,2.11,2.71,4.22,2.71h9.34c3.01,0,3.61-3.01,2.11-5.42l-43.98-78.02c28.62-8.14,49.71-32.54,49.71-62.96Zm-67.78,52.42h-63.56v-103.03h63.26c29.22,0,53.62,21.99,53.62,50.61s-24.4,52.42-53.32,52.42Z"/>
        <path class="cls-2" d="m1787.14,282.83h-129.54c-2.11,0-3.92,1.51-3.92,3.91v4.52c0,2.71.9,4.52,3.92,4.52h57.54v194c0,2.11,1.81,3.92,3.92,3.92h5.42c3.01,0,4.82-1.81,4.82-3.92v-194h57.84c2.41,0,3.92-1.81,3.92-3.92v-5.12c0-2.11-1.51-3.91-3.92-3.91Z"/>
        <path class="cls-2" d="m1970.89,282.83h-9.04c-1.51,0-3.01.6-3.92,1.81l-69.89,93.69-68.68-93.69c-.9-1.21-2.41-1.81-3.92-1.81h-9.04c-3.01,0-4.22,2.11-2.41,4.52l76.82,103.93v98.51c0,4.82,6.33,3.92,10.24,3.92,2.11,0,3.92-1.81,3.92-3.92v-98.81l78.32-103.63c1.81-2.41.6-4.52-2.41-4.52Z"/>
      </g>
      <path class="cls-2" d="m1774.13,54.94c-5.11,0-9.77-1.19-13.98-3.58-4.22-2.38-7.57-5.66-10.07-9.82-2.5-4.16-3.75-8.85-3.75-14.07s1.25-10.07,3.75-14.23c2.5-4.16,5.85-7.41,10.07-9.74C1764.37,1.17,1769.03,0,1774.13,0s9.91,1.17,14.07,3.5c4.16,2.33,7.49,5.58,9.99,9.74,2.5,4.16,3.75,8.91,3.75,14.23s-1.25,9.91-3.75,14.07c-2.5,4.16-5.83,7.44-9.99,9.82-4.16,2.39-8.85,3.58-14.07,3.58Zm-.17-4.99c4.22,0,8.05-.97,11.49-2.91,3.44-1.94,6.16-4.63,8.16-8.08,2-3.44,3-7.27,3-11.49s-1-8.18-3-11.57c-2-3.38-4.72-6.08-8.16-8.08-3.44-2-7.27-3-11.49-3s-7.85,1-11.24,3c-3.39,2-6.08,4.69-8.07,8.08-2,3.39-3,7.24-3,11.57s1,8.05,3,11.49c2,3.44,4.69,6.13,8.07,8.08,3.38,1.94,7.13,2.91,11.24,2.91Zm-9.82-38.29h10.16c2.77,0,5.16.72,7.16,2.16,2,1.44,3,3.77,3,6.99,0,2.78-.83,5.08-2.5,6.91-1.67,1.83-4.27,2.75-7.82,2.75h-4.99v11.65h-4.99V11.65Zm8.99,14.65c2.22,0,3.77-.5,4.66-1.5.89-1,1.33-2.27,1.33-3.83,0-1.89-.58-3.22-1.75-4-1.17-.78-2.41-1.17-3.75-1.17h-4.33v10.49h3.83Zm5.49,2.83l6.66,12.99h-5.66l-6.16-12.82,5.16-.17Z"/>
    </g>
  </g>
</svg>